<?xml version="1.0" standalone="no"?>
<!DOCTYPE svg PUBLIC "-//W3C//DTD SVG 20010904//EN"
 "http://www.w3.org/TR/2001/REC-SVG-20010904/DTD/svg10.dtd">
<svg version="1.0" xmlns="http://www.w3.org/2000/svg"
 width="1574.000000pt" height="1574.000000pt" viewBox="0 0 1574.000000 1574.000000"
 preserveAspectRatio="xMidYMid meet">
<metadata>
Created by potrace 1.14, written by Peter Selinger 2001-2017
</metadata>
<g transform="translate(0.000000,1574.000000) scale(0.100000,-0.100000)"
fill="#000000" stroke="none">
<path d="M3008 13444 c-29 -15 -50 -49 -62 -99 l-8 -30 -19 38 c-22 42 -23 42
-105 6 -24 -11 -44 -22 -44 -25 0 -3 19 -49 41 -102 23 -53 70 -171 106 -261
88 -225 70 -205 155 -170 39 16 73 31 76 33 2 2 -24 71 -58 153 -70 170 -81
226 -54 271 10 17 30 36 46 43 15 6 28 12 28 14 0 13 -58 139 -66 141 -5 2
-21 -4 -36 -12z"/>
<path d="M2449 13167 c-61 -23 -97 -55 -125 -113 -24 -49 -26 -63 -21 -125 7
-86 51 -180 119 -255 119 -130 256 -127 403 9 l60 55 -44 46 -45 45 -33 -34
c-76 -78 -156 -92 -211 -38 l-25 25 122 80 122 79 -27 50 c-32 58 -108 140
-151 163 -45 23 -103 28 -144 13z m99 -160 c17 -17 32 -36 32 -43 0 -7 -26
-28 -57 -48 l-58 -35 -12 23 c-7 13 -15 42 -19 64 -5 33 -2 44 15 61 27 27 53
21 99 -22z"/>
<path d="M13420 12869 c-129 -144 -256 -284 -281 -313 l-47 -52 61 -54 60 -54
71 79 c39 44 92 102 117 129 l47 50 68 -62 69 -61 43 42 c23 22 42 46 42 52 0
5 -30 37 -67 71 l-67 61 69 76 c38 43 74 77 80 77 6 0 24 -14 41 -31 16 -17
46 -45 67 -61 l38 -31 45 44 c24 24 43 48 42 54 -2 9 -127 125 -243 226 -20
18 -25 13 -255 -242z"/>
<path d="M1827 12864 l-45 -69 44 -45 44 -46 -27 -27 -27 -27 38 -39 39 -40
30 21 30 22 123 -127 c67 -69 137 -135 156 -147 36 -22 97 -26 131 -9 29 15
117 100 117 113 0 6 -19 29 -42 53 l-42 43 -22 -21 c-45 -42 -67 -31 -192 95
l-117 116 44 44 43 44 -38 41 -37 42 -44 -43 -43 -42 -59 58 -59 58 -45 -68z"/>
<path d="M4001 12818 c-23 -12 -327 -443 -620 -878 -627 -932 -839 -1464 -801
-2005 41 -574 370 -1072 865 -1310 478 -230 1030 -174 1460 148 408 306 646
823 621 1348 -14 297 -83 548 -242 879 -119 247 -264 484 -542 889 -200 291
-635 903 -653 918 -23 19 -63 24 -88 11z m322 -768 c275 -498 478 -891 559
-1085 202 -483 245 -830 148 -1185 -29 -105 -118 -283 -189 -377 -198 -263
-468 -411 -781 -429 -397 -23 -781 217 -978 611 -129 260 -159 587 -81 915 93
398 271 770 827 1725 223 385 202 353 215 329 6 -10 132 -237 280 -504z"/>
<path d="M11505 12683 c-229 -291 -452 -667 -515 -868 -28 -90 -37 -225 -20
-318 10 -60 58 -222 85 -289 6 -16 2 -16 -52 3 -166 57 -584 158 -724 175 -46
5 -58 3 -74 -12 -16 -17 -17 -31 -11 -159 10 -196 42 -492 71 -650 41 -221 99
-373 192 -504 l17 -24 -44 6 c-25 4 -110 9 -191 13 -200 9 -198 12 -154 -205
68 -334 170 -672 252 -835 99 -199 195 -288 384 -357 199 -73 407 -104 635
-97 121 4 154 3 154 -7 0 -63 44 -513 51 -527 13 -24 75 -25 88 0 5 9 26 144
47 300 36 273 39 283 58 277 12 -3 70 -11 129 -17 245 -27 613 41 785 144 197
119 345 437 493 1058 21 91 39 179 39 196 0 55 -11 58 -232 55 l-200 -2 30 43
c57 84 101 189 135 323 41 160 79 488 93 790 9 205 11 203 -186 165 -229 -45
-539 -125 -634 -165 -29 -13 -37 -13 -33 -3 87 204 117 308 117 406 0 222
-176 532 -574 1010 -134 160 -141 163 -211 75z m268 -403 c92 -155 207 -387
240 -487 35 -106 35 -183 2 -277 -51 -144 -202 -366 -327 -480 -40 -37 -75
-66 -79 -66 -11 0 -118 132 -163 200 -101 155 -177 322 -196 432 -9 52 -9 84
0 140 24 140 121 395 266 697 l68 142 60 -93 c33 -51 91 -145 129 -208z
m-1280 -1099 c459 -184 671 -305 755 -431 89 -132 172 -443 172 -641 l0 -69
-97 0 c-268 0 -617 107 -711 218 -86 102 -195 436 -266 817 -15 77 -28 148
-30 158 -2 9 -2 17 0 17 2 0 82 -31 177 -69z m2413 42 c-2 -10 -17 -85 -32
-168 -79 -442 -190 -765 -288 -837 -139 -103 -411 -178 -641 -178 l-113 0 5
88 c12 257 95 544 189 659 65 79 217 172 464 284 118 53 399 168 413 169 5 0
6 -8 3 -17z m-2503 -1342 c232 -57 457 -125 572 -173 180 -76 243 -140 345
-353 63 -130 101 -238 125 -353 23 -113 26 -108 -57 -123 -91 -16 -328 -17
-428 0 -309 49 -378 107 -538 450 -85 182 -243 601 -226 601 3 0 96 -22 207
-49z m2627 -68 c-168 -460 -346 -789 -459 -848 -99 -51 -263 -78 -461 -78
-129 1 -291 21 -308 38 -8 8 25 155 55 243 34 102 122 282 175 358 75 108 146
155 324 217 181 63 695 184 702 166 2 -5 -11 -48 -28 -96z"/>
<path d="M13798 12476 c-102 -29 -238 -138 -279 -223 -43 -90 -20 -198 57
-261 108 -89 262 -55 411 93 60 60 74 80 88 129 24 83 9 146 -50 208 -54 58
-142 78 -227 54z m140 -138 c7 -7 12 -25 12 -41 0 -52 -166 -191 -251 -211
-40 -9 -74 22 -65 59 10 40 116 139 188 175 66 32 97 37 116 18z"/>
<path d="M1653 12429 c-62 -31 -135 -138 -157 -231 -6 -25 -2 -28 46 -46 l53
-20 16 50 c29 86 86 127 139 98 18 -10 18 -13 -11 -74 -59 -125 -33 -242 68
-306 62 -40 111 -46 166 -22 63 28 92 73 92 143 l0 57 26 -14 c25 -13 27 -11
69 48 40 57 42 63 25 72 -18 11 -107 70 -274 183 -130 87 -182 100 -258 62z
m317 -309 c30 -56 -11 -111 -66 -90 -70 27 -89 74 -59 146 l14 35 51 -37 c28
-20 55 -44 60 -54z"/>
<path d="M1087 12009 c-15 -40 -26 -73 -25 -75 2 -1 129 -65 283 -143 154 -78
267 -138 250 -135 -16 3 -55 12 -85 20 -101 24 -493 95 -504 91 -11 -4 -51
-116 -44 -121 7 -7 400 -233 473 -274 44 -24 69 -41 55 -38 -14 4 -78 20 -142
36 -65 17 -186 46 -270 65 -84 20 -160 38 -169 40 -11 4 -22 -13 -42 -71 -15
-43 -25 -79 -22 -82 3 -3 159 -34 348 -68 188 -35 374 -70 414 -77 l71 -14 27
73 c15 40 24 78 20 83 -6 10 -353 219 -430 259 -52 27 -36 27 93 -2 164 -37
326 -67 372 -69 l42 -2 29 77 28 77 -52 30 c-29 16 -70 39 -92 51 -22 12 -160
91 -306 176 -146 84 -273 156 -281 159 -11 4 -21 -12 -41 -66z"/>
<path d="M14120 11940 c-177 -32 -316 -146 -328 -269 -10 -105 73 -211 176
-227 144 -22 352 78 413 199 37 71 22 176 -34 235 -50 54 -140 78 -227 62z
m144 -159 c36 -40 -10 -92 -133 -149 -117 -54 -211 -53 -211 3 0 24 47 70 100
99 118 64 212 82 244 47z"/>
<path d="M14205 11336 c-149 -37 -245 -120 -245 -212 0 -38 37 -98 73 -119
l32 -19 -33 -10 c-27 -7 -32 -13 -28 -30 2 -12 8 -42 11 -68 5 -30 12 -48 21
-48 7 0 73 13 146 29 73 17 255 53 403 82 149 28 274 55 278 59 12 10 -14 141
-29 147 -7 2 -70 -7 -140 -21 -70 -14 -131 -26 -136 -26 -5 0 -2 10 6 22 23
32 20 104 -4 144 -12 19 -42 43 -72 58 -45 23 -64 26 -142 25 -50 0 -113 -6
-141 -13z m213 -152 c31 -6 48 -45 32 -74 -15 -29 -55 -44 -172 -65 -109 -21
-155 -14 -169 22 -11 31 28 77 84 98 77 29 145 35 225 19z"/>
<path d="M7686 7018 c-67 -65 -1268 -2145 -1303 -2255 -29 -94 1 -198 80 -281
59 -60 122 -81 281 -92 304 -22 695 -40 1046 -50 205 -6 375 -12 377 -14 2 -2
-41 -108 -96 -237 -54 -129 -200 -477 -324 -774 -431 -1034 -405 -963 -373
-1033 24 -53 60 -76 117 -76 80 0 101 25 250 287 460 810 1091 1946 1136 2045
46 99 28 228 -43 310 -20 24 -61 54 -97 71 -59 29 -72 31 -292 46 -377 25
-570 34 -965 46 -206 6 -376 12 -378 14 -1 1 98 247 222 546 311 755 546 1343
546 1367 0 35 -21 81 -45 96 -14 9 -43 16 -65 16 -32 0 -47 -7 -74 -32z"/>
<path d="M4849 5843 c-21 -54 -39 -106 -39 -113 0 -4 81 -53 180 -109 99 -56
180 -103 180 -105 0 -2 -28 2 -63 10 -34 7 -119 22 -187 34 -69 12 -134 23
-146 26 -18 5 -24 -4 -49 -71 -15 -43 -24 -80 -19 -84 5 -5 95 -14 199 -20
289 -18 397 -30 419 -49 24 -22 54 -83 64 -129 l8 -38 73 -3 74 -3 -6 55 c-13
131 -90 213 -412 442 -132 94 -246 174 -253 178 -8 5 -16 -3 -23 -21z"/>
<path d="M4646 5231 c-2 -3 -7 -34 -11 -68 -7 -62 -7 -63 21 -73 l28 -11 -30
-18 c-40 -24 -58 -69 -51 -127 13 -121 167 -207 368 -207 100 1 159 22 201 72
44 52 49 131 11 174 -15 16 -15 17 3 17 38 0 97 -22 120 -45 35 -35 32 -88
-10 -186 -5 -12 6 -21 51 -38 55 -21 58 -21 71 -4 37 51 54 195 31 276 -15 54
-73 110 -142 136 -35 12 -137 31 -260 47 -111 14 -246 34 -300 43 -54 10 -99
15 -101 12z m289 -201 c100 -15 135 -28 146 -57 21 -56 -26 -87 -127 -85 -153
3 -254 71 -197 134 19 21 69 23 178 8z"/>
<path d="M4581 4621 c-26 -17 3 -87 50 -120 41 -30 37 -41 -17 -41 -23 0 -24
-3 -24 -72 l0 -71 98 6 c53 4 190 10 305 13 l207 7 0 84 0 84 -188 -7 c-164
-6 -191 -5 -219 10 -34 17 -63 61 -63 96 0 18 -6 20 -67 20 -38 0 -74 -4 -82
-9z"/>
<path d="M5140 4199 c-24 -11 -46 -22 -49 -24 -2 -3 6 -27 18 -55 24 -56 29
-126 12 -158 -11 -20 -59 -52 -79 -52 -5 0 -23 62 -41 138 l-33 139 -51 -9
c-123 -23 -224 -84 -254 -155 -49 -117 36 -255 174 -283 104 -22 243 5 330 63
58 38 103 119 103 181 0 68 -58 238 -80 235 -3 0 -25 -9 -50 -20z m-232 -247
c7 -35 11 -67 7 -70 -13 -13 -94 -5 -119 12 -47 30 -31 74 39 110 47 25 57 17
73 -52z"/>
<path d="M5135 3614 c-236 -123 -275 -155 -283 -233 -7 -72 29 -130 100 -164
l53 -25 -28 -13 c-15 -7 -27 -16 -27 -20 0 -20 55 -119 65 -117 5 2 128 63
272 136 l263 132 -37 74 -36 74 -176 -90 c-97 -49 -193 -92 -214 -95 -69 -10
-103 54 -53 100 13 12 105 62 204 111 l180 90 -36 73 c-20 40 -39 73 -42 72
-3 0 -95 -47 -205 -105z"/>
<path d="M5551 3189 c-28 -22 -51 -43 -51 -46 0 -2 29 -42 65 -88 l65 -83 -77
-63 c-43 -34 -83 -66 -89 -71 -8 -6 -32 17 -71 66 l-59 74 -52 -40 c-59 -46
-61 -35 19 -135 l47 -59 -65 -52 c-35 -29 -70 -55 -77 -58 -8 -3 -39 25 -76
71 l-62 75 -51 -42 c-29 -23 -53 -43 -55 -44 -5 -2 220 -279 227 -279 11 0
650 509 650 519 1 8 -227 296 -234 296 -1 0 -25 -18 -54 -41z"/>
</g>
</svg>
